Patient4_TMGait_0pt4_01_right_22_GRF.mot
version=1
nRows=39
nColumns=19
inDegrees=no
endheader
time	F1x	F1y	F1z	M1x	M1y	M1z	F2x	F2y	F2z	M2x	M2y	M2z	EC1x	EC1y	EC1z	EC2x	EC2y	EC2z
28.33	-9.7408	725.7357	48.3245	-247.199	-50.0101	727.7759	8.7766	24.1834	-2.5562	6.4059	-0.11716	23.363	-0.0592	0.0182	-0.0073	-0.0462	0.0165	0.9585
28.3425	-9.6165	722.7446	48.621	-245.5213	-49.7859	722.7569	5.7737	16.8353	-1.886	4.5927	0.10979	16.3266	-0.0592	0.0182	-0.0073	-0.0462	0.0165	0.9585
28.355	-9.2372	719.6275	48.8193	-243.791	-49.4328	717.5803	3.2779	10.6944	-1.2884	3.0665	0.27205	10.4401	-0.0592	0.0182	-0.0073	-0.0462	0.0165	0.9585
28.3675	-8.5769	717.005	48.8723	-242.2518	-48.9138	712.9262	1.4121	6.0946	-0.81721	1.9185	0.38004	6.0249	-0.0592	0.0182	-0.0073	-0.0462	0.0165	0.9585
28.38	-7.6285	715.5206	48.7552	-241.1346	-48.1955	709.4301	0.1369	2.9805	-0.48237	1.14	0.45088	3.0384	-0.0592	0.0182	-0.0073	-0.0462	0.0165	0.9585
28.3925	-6.4136	715.6958	48.493	-240.6125	-47.2866	707.5868	-0.64784	1.1143	-0.26698	0.67211	0.49604	1.2615	-0.0592	0.0182	-0.0073	-0.0462	0.0165	0.9585
28.405	-4.9757	717.8327	48.1314	-240.7748	-46.2242	707.6707	-1.0715	0.17107	-0.14819	0.4298	0.5267	0.38279	-0.0592	0.0182	-0.0073	-0.0462	0.0165	0.9585
28.4175	-3.3752	721.9666	47.7573	-241.6126	-45.0931	709.7052	-1.2681	-0.19856	-0.093103	0.3193	0.54977	0.051625	-0.0592	0.0182	-0.0073	-0.0462	0.0165	0.9585
28.43	-1.6569	727.8586	47.4445	-243.025	-43.9693	713.4545	-1.3358	-0.30713	-0.079856	0.25168	0.57783	-0.050153	-0.0592	0.0182	-0.0073	-0.0462	0.0165	0.9585
28.4425	0.12708	735.0612	47.2792	-244.8424	-42.941	718.4837	-1.3547	-0.42587	-0.085141	0.14561	0.61454	-0.19724	-0.0592	0.0182	-0.0073	-0.0462	0.0165	0.9585
28.455	1.962	742.9846	47.313	-246.8529	-42.0604	724.217	-1.3761	-0.78183	-0.10149	-0.069602	0.6689	-0.62519	-0.0592	0.0182	-0.0073	-0.0462	0.0165	0.9585
28.4675	3.8324	750.8941	47.6028	-248.8028	-41.3848	729.9477	-1.4101	-1.5285	-0.12013	-0.44512	0.7313	-1.4957	-0.0592	0.0182	-0.0073	-0.0462	0.0165	0.9585
28.48	5.7336	757.9602	48.1867	-250.4131	-40.9584	734.8816	-1.4307	-2.7517	-0.14015	-1.01	0.78596	-2.903	-0.0592	0.0182	-0.0073	-0.0462	0.0165	0.9585
28.4925	7.6189	763.3362	49.1068	-251.4044	-40.8474	738.2296	-1.3934	-4.4441	-0.15055	-1.7587	0.7957	-4.8445	-0.0592	0.0182	-0.0073	-0.0462	0.0165	0.9585
28.505	9.4545	766.3209	50.3609	-251.5528	-41.0805	739.3413	-1.1998	-6.4445	-0.15048	-2.6258	0.71407	-7.1444	-0.0592	0.0182	-0.0073	-0.0462	0.0165	0.9585
28.5175	11.2111	766.5402	51.9142	-250.7461	-41.6562	737.8804	-0.731	-8.3962	-0.1214	-3.4625	0.47161	-9.4004	-0.0592	0.0182	-0.0073	-0.0462	0.0165	0.9585
28.53	12.9119	764.0255	53.6775	-249.0049	-42.5085	733.8831	0.14856	-9.6751	-0.045715	-4.007	-0.0055814	-10.9085	-0.0592	0.0182	-0.0073	-0.0462	0.0165	0.9585
28.5425	14.6099	759.1861	55.5921	-246.4654	-43.5786	727.7296	1.5999	-9.2825	0.10193	-3.8444	-0.80152	-10.538	-0.0592	0.0182	-0.0073	-0.0462	0.0165	0.9585
28.555	16.4178	752.7059	57.6171	-243.347	-44.7997	720.0434	3.7389	-5.8437	0.34546	-2.3984	-1.9794	-6.7298	-0.0592	0.0182	-0.0073	-0.0462	0.0165	0.9585
28.5675	18.4301	745.3671	59.707	-239.9016	-46.09	711.5505	6.6017	2.3949	0.70219	1.0654	-3.5555	2.506	-0.0592	0.0182	-0.0073	-0.0462	0.0165	0.9585
28.58	20.719	737.8205	61.7557	-236.3455	-47.3141	702.8664	10.0755	17.4324	1.165	7.3815	-5.4519	19.4465	-0.0592	0.0182	-0.0073	-0.0462	0.0165	0.9585
28.5925	23.298	730.3178	63.5973	-232.7799	-48.2991	694.2445	13.7566	41.155	1.7009	17.3421	-7.4454	46.2512	-0.0592	0.0182	-0.0073	-0.0462	0.0165	0.9585
28.605	26.1358	722.5286	64.992	-229.134	-48.8247	685.4021	16.8582	74.8179	2.2286	31.4687	-9.0999	84.3869	-0.0592	0.0182	-0.0073	-0.0462	0.0165	0.9585
28.6175	29.1152	713.4792	65.6699	-225.1393	-48.6746	675.4723	18.0685	118.1436	2.605	49.6361	-9.6995	133.5987	-0.0592	0.0182	-0.0073	-0.0462	0.0165	0.9585
28.63	32.0533	701.6646	65.3672	-220.3668	-47.6613	663.1074	15.5217	168.1715	2.5739	70.5971	-8.2041	190.6168	-0.0592	0.0182	-0.0073	-0.0462	0.0165	0.9585
28.6425	34.7164	685.3628	63.8687	-214.3278	-45.6567	646.7405	8.1477	219.0933	1.7089	91.8904	-3.7574	249.0259	-0.0592	0.0182	-0.0073	-0.0462	0.0165	0.9585
28.655	36.8913	663.1549	61.0772	-206.6271	-42.6414	625.0714	-2.4401	264.1779	-0.30116	110.6833	3.2378	301.2361	-0.0592	0.0182	-0.0073	-0.0462	0.0165	0.9585
28.6675	38.4246	634.2843	57.1287	-197.0575	-38.7856	597.3861	-13.8061	299.5	-3.3582	125.3334	11.6251	342.5988	-0.0592	0.0182	-0.0073	-0.0462	0.0165	0.9585
28.68	39.2216	598.6745	52.369	-185.5915	-34.4238	563.5997	-24.3804	325.7828	-7.118	136.1162	20.3757	373.719	-0.0592	0.0182	-0.0073	-0.0462	0.0165	0.9585
28.6925	39.2648	556.7829	47.1786	-172.3454	-29.8951	524.0973	-33.2984	346.2021	-11.0199	144.3652	28.5281	398.0297	-0.0592	0.0182	-0.0073	-0.0462	0.0165	0.9585
28.705	38.5383	509.4335	41.826	-157.5375	-25.4386	479.6074	-40.3682	364.465	-14.8194	151.6371	35.7119	419.6313	-0.0592	0.0182	-0.0073	-0.0462	0.0165	0.9585
28.7175	36.9832	457.6915	36.4329	-141.4597	-21.1757	431.0808	-45.6425	383.9509	-18.228	159.3468	41.6509	442.1807	-0.0592	0.0182	-0.0073	-0.0462	0.0165	0.9585
28.73	34.4952	402.8164	31.0809	-124.4661	-17.2147	379.6715	-49.2438	407.3326	-21.4616	168.5876	46.6239	468.5093	-0.0592	0.0182	-0.0073	-0.0462	0.0165	0.9585
28.7425	30.9647	346.3134	25.8717	-106.9918	-13.6814	326.7715	-51.3702	436.5512	-24.8146	180.1354	51.0492	500.6197	-0.0592	0.0182	-0.0073	-0.0462	0.0165	0.9585
28.755	26.3537	289.9428	20.976	-89.5597	-10.7451	274.0112	-52.2556	472.5731	-28.7945	194.3427	55.5682	539.494	-0.0592	0.0182	-0.0073	-0.0462	0.0165	0.9585
28.7675	20.8115	235.6812	16.577	-72.7708	-8.5308	223.2165	-52.126	515.0552	-33.6859	211.0378	60.6019	584.6959	-0.0592	0.0182	-0.0073	-0.0462	0.0165	0.9585
28.78	14.7591	185.4963	12.8301	-57.2318	-7.0539	176.2002	-51.2967	562.3165	-39.6989	229.514	66.5018	634.3945	-0.0592	0.0182	-0.0073	-0.0462	0.0165	0.9585
28.7925	8.7807	140.9956	9.7875	-43.4475	-6.184	134.4443	-50.0237	611.8273	-46.6102	248.7497	73.1481	685.8491	-0.0592	0.0182	-0.0073	-0.0462	0.0165	0.9585
28.805	3.4569	103.1209	7.402	-31.7202	-5.7009	98.8154	-48.4967	660.7671	-53.9627	267.6348	80.1227	736.0573	-0.0592	0.0182	-0.0073	-0.0462	0.0165	0.9585
